<?xml version="1.0" encoding="utf-8"?>
<!-- Generator: Adobe Illustrator 20.0.0, SVG Export Plug-In . SVG Version: 6.00 Build 0)  -->
<svg version="1.1" id="Layer_1" xmlns="http://www.w3.org/2000/svg" xmlns:xlink="http://www.w3.org/1999/xlink" x="0px" y="0px"
	 width="18px" height="21px" viewBox="0 0 18 21" style="enable-background:new 0 0 18 21;" xml:space="preserve">
<path d="M14,18c-3.3,0-5.3-2.2-6.1-4.8h6.4l0.3-1.8h-7c-0.1-0.6-0.1-1.2,0-1.8h7.3l0.3-1.8H7.8C8.6,5.2,10.5,3,13.6,3
	c1.1,0,2.3,0.2,3.6,0.5L18,0.7C16.2,0.2,14.6,0,13,0C7.4,0,4,3.6,3,7.9h-2L0.6,9.6h2.1c0,0.6,0,1.2,0,1.8H0.3L0,13.1h3
	C4,17.4,7.4,21,13.5,21c1.4,0,2.8-0.2,4.2-0.7l-0.8-2.8C15.9,17.8,14.9,18,14,18z"/>
</svg>
