<?xml version="1.0" encoding="utf-8"?>
<!-- Generator: Adobe Illustrator 20.0.0, SVG Export Plug-In . SVG Version: 6.00 Build 0)  -->
<svg version="1.1" id="Layer_1" xmlns="http://www.w3.org/2000/svg" xmlns:xlink="http://www.w3.org/1999/xlink" x="0px" y="0px"
	 width="64px" height="51px" viewBox="0 0 64 51" style="enable-background:new 0 0 64 51;" xml:space="preserve">
<style type="text/css">
	.st0{fill:#00A5E9;}
	.st1{fill:#00CCB9;}
	.st2{fill:#018BD1;}
	.st3{fill:#4EDECB;}
	.st4{fill:#045B7F;}
</style>
<g id="Layer_1_1_">
</g>
<g id="Layer_2">
	<path class="st0" d="M52.4,10.7l-9.2-5c-0.1-0.1-0.3,0-0.3,0l-7.2,4.9c0,0-0.1,0.1-0.1,0.1c0,0,0,0.1,0,0.1l3.7,3.3
		c0,0,0.1,0,0.1,0c0,0,0,0,0.1,0l4.7-2.1l8.1-1.1c0.1,0,0.1-0.1,0.1-0.1C52.5,10.8,52.5,10.7,52.4,10.7z"/>
	<path class="st1" d="M38.9,18.1l7.8,0.9c0,0,2.5-4.1,5.7-6.5l-0.3-1.8L44.3,12l-4.7,2.1L38.9,18.1z"/>
	<polygon class="st2" points="28.1,14 35.8,10.7 39.6,14.2 38.9,18.1 31.3,12.6 	"/>
	<path class="st0" d="M31.3,12.5L1,0.2C0.4-0.1,0.3,0,0.3,0c0,0.1,0.2,0.4,0.2,0.5c5,6.7,16.5,18.7,16.7,18.8c0,0,0.1,0,0.1,0
		c0,0,0,0,0.1,0l14-6.5c0.1,0,0.1-0.1,0.1-0.1C31.4,12.6,31.4,12.6,31.3,12.5z"/>
	<polygon class="st0" points="26.8,28.8 28.9,29.5 38.9,18.1 31.4,12.6 	"/>
	<path class="st3" d="M45.1,26.1c0.1-0.1,0.2-0.2,0.3-0.5h0c0.3-1.8,1.3-6.6,1.3-6.6l-7.8-0.9l-10,11.4l4,5.6L45.1,26.1z"/>
	<path class="st2" d="M26.8,28.8c0,0,4.5,12.6,5.7,14.8l0.4-8.4l-4-5.6L26.8,28.8z"/>
	<path class="st1" d="M32.7,51.1l0-0.3l0,0l0,0l-0.3-7.4l-5.7-14.6c0,0,0,0,0,0.1c-0.1,1.1-1.6,11-0.3,17.2c0,0.1,0.1,0.3,0.2-0.1
		c0.4-1.2,1.4-4.3,1.8-4.7c0,0,0.2,4.3,0.6,6.2c0,0,0.1,0.4,0.4,0.7c0.6,0.7,2.2,2.2,3,3C32.6,51.2,32.7,51.3,32.7,51.1z"/>
	
		<ellipse transform="matrix(9.290586e-02 -0.9957 0.9957 9.290586e-02 28.3589 54.9997)" class="st4" cx="44.4" cy="11.9" rx="1.9" ry="1.8"/>
	<path class="st4" d="M45.9,11.6c0,0,7.2-1.3,18.1-2.3c0,0-9.7,2.3-11.9,3.5l-6.6-0.6L45.9,11.6z"/>
	<polygon class="st4" points="42.9,12.2 39.3,14 39.6,14.2 43.3,12.5 	"/>
	<path class="st1" d="M43.4,40.5C43.4,40.5,43.4,40.5,43.4,40.5C43.3,40.5,43.3,40.5,43.4,40.5L43.4,40.5c-7.4-3.2-9.5-6.1-9.5-6.1
		l-1,0.6l-0.4,8.4c0,0,1.5,5.5,2.2,7.2c0,0,0.1,0.3,0.3,0.2c0,0,0.1,0,0.1-0.1c0,0,0,0,0,0l0,0c0.2-0.1,0.4-0.3,0.7-0.4
		c0,0,1.7-1.3,3.6-3c0.1-0.1,0.1-0.3,0-0.3c-0.7-1.2-3-5.2-3.8-6.3c0,0,2.9,3,5.3,4.7c0,0,0.1,0.1,0.2,0c1-1.3,2.1-3.1,2.3-4.5
		C43.5,40.6,43.5,40.5,43.4,40.5z"/>
	<path class="st2" d="M27.9,14.2c0,0-9.2,4.6-12.1,5.3l6.6,1.9L27.9,14.2z"/>
	<path class="st0" d="M26.8,28.7l-9.5-9.5c0,0,0,0-0.1,0c0,0,0,0-0.1,0l-0.1-0.1l-0.2,0.1L16,19.5c-2.8,0.7-9.8,2.6-15.9,4.1
		c0,0,0,0,0,0s-0.3,0.1,0.1,0.2c1.4,0.3,11.1,2.5,26.5,4.9c0,0,0,0,0,0C26.8,28.8,26.8,28.8,26.8,28.7
		C26.8,28.7,26.8,28.7,26.8,28.7z"/>
	<polygon class="st2" points="31.4,12.6 18.6,18.5 16.9,19.2 23.6,25.6 26.8,28.8 	"/>
</g>
<g id="Layer_3">
</g>
<g id="Layer_4">
</g>
</svg>
