<?xml version="1.0" encoding="utf-8"?>
<!-- Generator: Adobe Illustrator 20.0.0, SVG Export Plug-In . SVG Version: 6.00 Build 0)  -->
<svg version="1.1" id="Ebene_1" xmlns="http://www.w3.org/2000/svg" xmlns:xlink="http://www.w3.org/1999/xlink" x="0px" y="0px"
	 width="19px" height="25px" viewBox="0 0 19 25" style="enable-background:new 0 0 19 25;" xml:space="preserve">
<g id="XMLID_48_">
	<path id="XMLID_420_" d="M9.6,8.9c2.7,0,4.4-1.6,4.4-4.2S12.8,0,9.6,0C6.3,0,5.2,2.1,5.2,4.7C5.2,7.3,6.9,8.9,9.6,8.9z"/>
	<path id="XMLID_380_" d="M18.9,19.5c-0.1-6.7-1.5-9.2-6.3-9.9c-0.8,0.6-1.8,0.9-3,0.9s-2.3-0.3-3-0.9c-5.1,0.6-6.6,3-6.6,9.8
		c0,0.2,0,0.5,0,0.7v0.4v2.9c0,0.4,0.3,0.7,0.6,0.7c0,0,2,0.9,9,0.9s8.8-0.9,8.8-0.9c0.3,0,0.6-0.3,0.6-0.7v-2.9c0-0.4,0-0.6,0-0.6
		C18.9,19.9,18.9,19.6,18.9,19.5z M9.7,21c-0.2,0.2-0.5,0.2-0.7,0l-1.5-1.6l1.4-7.6h1l1.4,7.5L9.7,21z"/>
</g>
</svg>
