<?xml version="1.0" encoding="utf-8"?>
<!-- Generator: Adobe Illustrator 20.0.0, SVG Export Plug-In . SVG Version: 6.00 Build 0)  -->
<svg version="1.1" id="Layer_1" xmlns="http://www.w3.org/2000/svg" xmlns:xlink="http://www.w3.org/1999/xlink" x="0px" y="0px"
	 width="23px" height="23px" viewBox="0 0 23 23" style="enable-background:new 0 0 23 23;" xml:space="preserve">
<path d="M23,21.6l-2.7-2.7c0.5-0.8,0.8-1.7,0.8-2.6c0-2.6-2.1-4.8-4.8-4.8s-4.8,2.1-4.8,4.8s2.1,4.8,4.8,4.8c1,0,1.9-0.3,2.6-0.8
	l2.7,2.7L23,21.6z M13.4,16.3c0-1.6,1.3-2.9,2.9-2.9s2.9,1.3,2.9,2.9s-1.3,2.9-2.9,2.9S13.4,17.9,13.4,16.3z M9.6,16.3L9.6,16.3
	l-2.9,2.1V5.8l3.8-2.8v9.8c0.5-0.8,1.1-1.5,1.9-2.1V3.1l3.8,2.8v3.8h0c0.3,0,0.6,0,0.9,0.1V5.8l3.8-2.4v8.1c1.1,1.2,1.9,2.7,1.9,4.5
	V0l-6.2,3.8L11.5,0L6.2,3.8L0,0v17.3l6.2,3.8l3.7-2.7C9.7,17.7,9.6,17,9.6,16.3z M5.7,18.6l-3.8-2.4V3.4l3.8,2.4V18.6z"/>
</svg>
