<?xml version="1.0" encoding="utf-8"?>
<!-- Generator: Adobe Illustrator 20.0.0, SVG Export Plug-In . SVG Version: 6.00 Build 0)  -->
<svg version="1.1" id="Ebene_1" xmlns="http://www.w3.org/2000/svg" xmlns:xlink="http://www.w3.org/1999/xlink" x="0px" y="0px"
	 width="43px" height="26px" viewBox="0 0 43 26" style="enable-background:new 0 0 43 26;" xml:space="preserve">
<style type="text/css">
	.st0{fill:#FFFFFF;}
</style>
<g>
	<path class="st0" d="M23.8,2.1l-0.8-0.8C22.7,1.1,22.5,1,22.3,1L14,1.9L1.2,14.8c-0.3,0.3-0.3,0.7,0,0.9l8.1,8.1
		c0.3,0.3,0.7,0.3,0.9,0l12.9-12.9L24,2.7C24,2.5,23.9,2.2,23.8,2.1z M16.1,14.2c-0.7,0.7-1.6,1-2.5,1h0c-0.6,0-1.2-0.2-1.8-0.5
		L8.6,18c-0.3,0.3-0.8,0.3-1.2,0l-0.2-0.2c-0.3-0.3-0.3-0.8,0-1.2l3.2-3.2c-0.3-0.5-0.5-1.1-0.5-1.8c0-1,0.4-1.9,1-2.6
		c1.4-1.4,3.7-1.4,5.1,0c0.7,0.7,1.1,1.6,1.1,2.6C17.2,12.6,16.8,13.5,16.1,14.2z M19.6,6.7c-0.8,0-1.4-0.6-1.4-1.4S18.9,4,19.6,4
		C20.4,4,21,4.6,21,5.3C21,6.1,20.4,6.7,19.6,6.7z"/>
	<path class="st0" d="M13.5,9.3c-0.6,0-1.2,0.2-1.7,0.7c-0.5,0.5-0.7,1-0.7,1.7c0,0.6,0.3,1.2,0.7,1.7c0.4,0.5,1,0.7,1.7,0.7
		c0,0,0,0,0,0c0.6,0,1.2-0.3,1.7-0.7c0.9-0.9,0.9-2.4,0-3.3C14.8,9.5,14.1,9.3,13.5,9.3z"/>
</g>
<g id="XMLID_48_">
	<path id="XMLID_420_" class="st0" d="M34.1,9.8c2.6,0,4.2-1.6,4.2-4.2S37.2,1,34.1,1c-3.1,0-4.2,2.1-4.2,4.7
		C29.9,8.2,31.5,9.8,34.1,9.8z"/>
	<path id="XMLID_380_" class="st0" d="M42.9,20.2c-0.1-6.6-1.4-9.1-6-9.8c-0.7,0.6-1.7,0.9-2.8,0.9c-1.1,0-2.1-0.3-2.8-0.9
		c-4.8,0.6-6.2,3-6.3,9.6c0,0.2,0,0.5,0,0.7v0.4v2.9c0,0.4,0.3,0.7,0.6,0.7c0,0,1.9,0.9,8.5,0.9s8.4-0.9,8.4-0.9
		c0.3,0,0.6-0.3,0.6-0.7v-2.8c0-0.4,0-0.6,0-0.6C42.9,20.6,42.9,20.4,42.9,20.2z M34.2,21.7c-0.2,0.2-0.5,0.2-0.6,0l-1.4-1.6
		l1.3-7.5h1l1.3,7.4L34.2,21.7z"/>
</g>
</svg>
