<svg id="Layer_1" xmlns="http://www.w3.org/2000/svg" width="64" height="51"><style>.st0{fill:#00a5e9}.st1{fill:#00ccb9}.st2{fill:#018bd1}.st4{fill:#045b7f}</style><g id="Layer_2"><path class="st0" d="M52.4 10.7l-9.2-5c-.1-.1-.3 0-.3 0l-7.2 4.9-.1.1v.1l3.7 3.3h.2l4.7-2.1 8.1-1.1c.1 0 .1-.1.1-.1.1 0 .1-.1 0-.1z"/><path class="st1" d="M38.9 18.1l7.8.9s2.5-4.1 5.7-6.5l-.3-1.8-7.8 1.3-4.7 2.1-.7 4z"/><path class="st2" d="M28.1 14l7.7-3.3 3.8 3.5-.7 3.9-7.6-5.5z"/><path class="st0" d="M31.3 12.5L1 .2C.4-.1.3 0 .3 0c0 .1.2.4.2.5 5 6.7 16.5 18.7 16.7 18.8h.2l14-6.5c.1 0 .1-.1.1-.1l-.2-.2z"/><path class="st0" d="M26.8 28.8l2.1.7 10-11.4-7.5-5.5z"/><path d="M45.1 26.1c.1-.1.2-.2.3-.5.3-1.8 1.3-6.6 1.3-6.6l-7.8-.9-10 11.4 4 5.6 12.2-9z" fill="#4edecb"/><path class="st2" d="M26.8 28.8s4.5 12.6 5.7 14.8l.4-8.4-4-5.6-2.1-.8z"/><path class="st1" d="M32.7 51.1v-.3l-.3-7.4-5.7-14.6v.1c-.1 1.1-1.6 11-.3 17.2 0 .1.1.3.2-.1.4-1.2 1.4-4.3 1.8-4.7 0 0 .2 4.3.6 6.2 0 0 .1.4.4.7.6.7 2.2 2.2 3 3 .2 0 .3.1.3-.1z"/><ellipse transform="rotate(-84.67 44.364 11.935)" class="st4" cx="44.4" cy="11.9" rx="1.9" ry="1.8"/><path class="st4" d="M45.9 11.6s7.2-1.3 18.1-2.3c0 0-9.7 2.3-11.9 3.5l-6.6-.6.4-.6zm-3 .6L39.3 14l.3.2 3.7-1.7z"/><path class="st1" d="M43.4 40.5c-.1 0-.1 0 0 0-7.4-3.2-9.5-6.1-9.5-6.1l-1 .6-.4 8.4s1.5 5.5 2.2 7.2c0 0 .1.3.3.2 0 0 .1 0 .1-.1.2-.1.4-.3.7-.4 0 0 1.7-1.3 3.6-3 .1-.1.1-.3 0-.3-.7-1.2-3-5.2-3.8-6.3 0 0 2.9 3 5.3 4.7 0 0 .1.1.2 0 1-1.3 2.1-3.1 2.3-4.5.1-.3.1-.4 0-.4z"/><path class="st2" d="M27.9 14.2s-9.2 4.6-12.1 5.3l6.6 1.9 5.5-7.2z"/><path class="st0" d="M26.8 28.7l-9.5-9.5h-.2l-.1-.1-.2.1-.8.3c-2.8.7-9.8 2.6-15.9 4.1s-.3.1.1.2c1.4.3 11.1 2.5 26.5 4.9.1.1.1.1.1 0z"/><path class="st2" d="M31.4 12.6l-12.8 5.9-1.7.7 6.7 6.4 3.2 3.2z"/></g></svg>