<svg id="Ebene_1" xmlns="http://www.w3.org/2000/svg" width="43" height="26"><style>.st0{fill:#fff}</style><path class="st0" d="M23.8 2.1l-.8-.8c-.3-.2-.5-.3-.7-.3l-8.3.9L1.2 14.8c-.3.3-.3.7 0 .9l8.1 8.1c.3.3.7.3.9 0l12.9-12.9.9-8.2c0-.2-.1-.5-.2-.6zm-7.7 12.1c-.7.7-1.6 1-2.5 1-.6 0-1.2-.2-1.8-.5L8.6 18c-.3.3-.8.3-1.2 0l-.2-.2c-.3-.3-.3-.8 0-1.2l3.2-3.2c-.3-.5-.5-1.1-.5-1.8 0-1 .4-1.9 1-2.6 1.4-1.4 3.7-1.4 5.1 0 .7.7 1.1 1.6 1.1 2.6.1 1-.3 1.9-1 2.6zm3.5-7.5c-.8 0-1.4-.6-1.4-1.4S18.9 4 19.6 4c.8 0 1.4.6 1.4 1.3 0 .8-.6 1.4-1.4 1.4z"/><path class="st0" d="M13.5 9.3c-.6 0-1.2.2-1.7.7-.5.5-.7 1-.7 1.7 0 .6.3 1.2.7 1.7.4.5 1 .7 1.7.7.6 0 1.2-.3 1.7-.7.9-.9.9-2.4 0-3.3-.4-.6-1.1-.8-1.7-.8z"/><g id="XMLID_48_"><path id="XMLID_420_" class="st0" d="M34.1 9.8c2.6 0 4.2-1.6 4.2-4.2S37.2 1 34.1 1s-4.2 2.1-4.2 4.7c0 2.5 1.6 4.1 4.2 4.1z"/><path id="XMLID_380_" class="st0" d="M42.9 20.2c-.1-6.6-1.4-9.1-6-9.8-.7.6-1.7.9-2.8.9-1.1 0-2.1-.3-2.8-.9-4.8.6-6.2 3-6.3 9.6v4c0 .4.3.7.6.7 0 0 1.9.9 8.5.9s8.4-.9 8.4-.9c.3 0 .6-.3.6-.7v-3.4c-.2 0-.2-.2-.2-.4zm-8.7 1.5c-.2.2-.5.2-.6 0l-1.4-1.6 1.3-7.5h1l1.3 7.4-1.6 1.7z"/></g></svg>